{"title":"Mr Robot S02E05 eps2 3 logic-b0mb hc 720p WEB-DL HEVC 2CH x265","uid":15492670,"size":406326575,"categoryP":"video","categoryS":"hd___tv_shows","magnet":"?xt=urn:btih:74dcafa5698da041f8c1e6168d7344c3a5ec6656&amp;dn=Mr+Robot+S02E05+eps2+3+logic-b0mb+hc+720p+WEB-DL+HEVC+2CH+x265&amp;tr=udp%3A%2F%2Ftracker.leechers-paradise.org%3A6969&amp;tr=udp%3A%2F%2Fzer0day.ch%3A1337&amp;tr=udp%3A%2F%2Fopen.demonii.com%3A1337&amp;tr=udp%3A%2F%2Ftracker.coppersurfer.tk%3A6969&amp;tr=udp%3A%2F%2Fexodus.desync.com%3A6969","seeders":3,"leechers":0,"uploader":"nayhtut","files":1,"time":1470390049,"description":"[Screenshots]\r\n \nhttps://s32.postimg.org/4axp2y9np/Mr_Robot_S02_E05_eps2_3_logic_b0mb_hc_720p_WEB_DL.jpg \nhttps://s32.postimg.org/51qf8qc11/Mr_Robot_S02_E05_eps2_3_logic_b0mb_hc_720p_WEB_DL.jpg \nhttps://s32.postimg.org/x34gmfhb9/Mr_Robot_S02_E05_eps2_3_logic_b0mb_hc_720p_WEB_DL.jpg\r\n\r\n\r\nSource:  Mr Robot S02E05 eps2 3 logic-b0mb hc 1080p WEB-DL DD5 1 H264-NTb  (1.98 GB)\r\n\r\n__--__--__--__--__--__--__--__--__--__--__--__--__--\r\n\r\n\r\nComplete name                            : Mr.Robot.S02E05.eps2.3.logic-b0mb.hc.720p.WEB-DL.HEVC.2CH.x265.mkv\r\nFormat                                   : Matroska\r\nFormat version                           : Version 4 / Version 2\r\nFile size                                : 388 MiB\r\nDuration                                 : 51mn 28s\r\nOverall bit rate                         : 1 053 Kbps\r\nWriting application                      : Lavf57.25.100\r\nWriting library                          : Lavf57.25.100\r\n\r\nVideo\r\n\r\nID                                       : 1\r\nFormat                                   : V_MPEGH/ISO/HEVC\r\nCodec ID                                 : V_MPEGH/ISO/HEVC\r\nDuration                                 : 51mn 28s\r\nBit rate                                 : 840 Kbps\r\nWidth                                    : 1 274 pixels\r\nHeight                                   : 720 pixels\r\nDisplay aspect ratio                     : 16:9\r\nFrame rate                               : 25.000 fps\r\nBits/(Pixel*Frame)                       : 0.037\r\nStream size                              : 309 MiB (80%)\r\nWriting library                          : Lavc57.48.101 libx265\r\nLanguage                                 : English\r\nDefault                                  : Yes\r\nForced                                   : No\r\nDURATION                                 : 00:51:28.451000000\r\nNUMBER_OF_FRAMES                         : 74048\r\nNUMBER_OF_BYTES                          : 1975434749\r\n_STATISTICS_WRITING_APP                  : mkvmerge v8.3.0 ('Over the Horizon') 64bit\r\n_STATISTICS_WRITING_DATE_UTC             : 2016-08-04 13:47:44\r\n_STATISTICS_TAGS                         : BPS DURATION NUMBER_OF_FRAMES NUMBER_OF_BYTES\r\n\r\nAudio\r\n\r\nID                                       : 2\r\nFormat                                   : AC-3\r\nFormat/Info                              : Audio Coding 3\r\nMode extension                           : CM (complete main)\r\nFormat settings, Endianness              : Big\r\nCodec ID                                 : A_AC3\r\nDuration                                 : 51mn 28s\r\nBit rate mode                            : Constant\r\nBit rate                                 : 192 Kbps\r\nChannel(s)                               : 2 channels\r\nChannel positions                        : Front: L R\r\nSampling rate                            : 48.0 KHz\r\nBit depth                                : 16 bits\r\nCompression mode                         : Lossy\r\nStream size                              : 70.7 MiB (18%)\r\nWriting library                          : Lavc57.24.102 ac3\r\nLanguage                                 : English\r\nDefault                                  : Yes\r\nForced                                   : No\r\nDURATION                                 : 00:51:28.447000000\r\nNUMBER_OF_FRAMES                         : 96511\r\nNUMBER_OF_BYTES                          : 148240896\r\n_STATISTICS_WRITING_APP                  : mkvmerge v8.3.0 ('Over the Horizon') 64bit\r\n_STATISTICS_WRITING_DATE_UTC             : 2016-08-04 13:47:44\r\n_STATISTICS_TAGS                         : BPS DURATION NUMBER_OF_FRAMES NUMBER_OF_BYTES\r\n\r\nText\r\n\r\nID                                       : 3\r\nFormat                                   : ASS\r\nCodec ID                                 : S_TEXT/ASS\r\nCodec ID/Info                            : Advanced Sub Station Alpha\r\nCompression mode                         : Lossless\r\nWriting library                          : Lavc57.48.101 ssa\r\nLanguage                                 : English\r\nDefault                                  : Yes\r\nForced                                   : No\r\nDURATION                                 : 00:51:01.669000000\r\nNUMBER_OF_FRAMES                         : 829\r\nNUMBER_OF_BYTES                          : 23553\r\n_STATISTICS_WRITING_APP                  : mkvmerge v8.3.0 ('Over the Horizon') 64bit\r\n_STATISTICS_WRITING_DATE_UTC             : 2016-08-04 13:47:44\r\n_STATISTICS_TAGS                         : BPS DURATION NUMBER_OF_FRAMES NUMBER_OF_BYTES\r\n\r\n\r\n__--__--__--__--__--__--__--__--__--__--__--__--__--\r\n\r\n\r\nIMDb: http://www.imdb.com/title/tt4158110\r\n\r\n\r\n__--__--__--__--__--__--__--__--__--__--__--__--__--\r\n\r\n\r\nAfter adding torrent with magnet link,\r\n\r\nplease add this  following trackers list to the torrent for better seeds.\r\n\r\n\r\nudp://tracker.coppersurfer.tk:6969/announce\r\n\r\nudp://tracker.opentrackr.org:1337/announce\r\n \nhttp://tracker.baravik.org:6970/announce\r\n \nhttp://tracker2.wasabii.com.tw:6969/announce\r\n\r\nudp://9.rarbg.me:2710/announce\r\n\r\n\r\n__--__--__--__--__--__--__--__--__--__--__--__--__--\r\n\r\n\r\nEnjoy!","torrent":{"xt":"urn:btih:74dcafa5698da041f8c1e6168d7344c3a5ec6656","amp;dn":"Mr+Robot+S02E05+eps2+3+logic-b0mb+hc+720p+WEB-DL+HEVC+2CH+x265","amp;tr":["udp%3A%2F%2Ftracker.leechers-paradise.org%3A6969","udp%3A%2F%2Fzer0day.ch%3A1337","udp%3A%2F%2Fopen.demonii.com%3A1337","udp%3A%2F%2Ftracker.coppersurfer.tk%3A6969","udp%3A%2F%2Fexodus.desync.com%3A6969"],"infoHash":"74dcafa5698da041f8c1e6168d7344c3a5ec6656","infoHashBuffer":{"type":"Buffer","data":[116,220,175,165,105,141,160,65,248,193,230,22,141,115,68,195,165,236,102,86]},"announce":[],"urlList":[]}}